<svg width="185" height="37" viewBox="0 0 185 37" fill="none" xmlns="http://www.w3.org/2000/svg">
<g id="borderless connectivity.">
<path d="M5.88659 10.0306H9.25744C10.5276 10.0306 11.1383 10.5696 11.1383 11.5539C11.1383 12.8429 10.1612 13.1476 9.03761 13.1476H5.88659V10.0306ZM0.512773 17.1317H10.4055C13.4832 17.1317 16.5121 15.3974 16.5121 12.0461C16.5121 9.5853 15.0465 8.39007 13.4832 7.87448C14.7778 7.19484 15.6327 6.28083 15.6327 4.59345C15.6327 2.88262 14.6557 0.39841 10.0635 0.39841H0.512773V17.1317ZM5.88659 4.38252H8.72006C9.81925 4.38252 10.552 4.68719 10.552 5.53088C10.552 6.60894 9.84368 6.9136 8.72006 6.9136H5.88659V4.38252Z" fill="#7888A0"/>
<path d="M17.25 8.76504C17.25 13.8741 20.7919 17.5301 26.0924 17.5301C31.393 17.5301 34.9348 13.8741 34.9348 8.76504C34.9348 3.65601 31.393 0 26.0924 0C20.7919 0 17.25 3.65601 17.25 8.76504ZM22.6239 8.76504C22.6239 5.03873 24.7245 4.1716 26.0924 4.1716C27.4603 4.1716 29.561 5.03873 29.561 8.76504C29.561 12.4914 27.4603 13.3585 26.0924 13.3585C24.7245 13.3585 22.6239 12.4914 22.6239 8.76504Z" fill="#7888A0"/>
<path d="M36.3491 17.1317H41.7229V11.2961H44.5808C46.7059 11.2961 46.8524 12.9601 46.999 14.5537C47.0723 15.4209 47.17 16.288 47.4387 17.1317H52.8125C52.324 16.3583 52.2995 14.3662 52.2262 13.546C52.0308 11.4602 51.1271 9.91341 49.6615 9.37438C51.4446 8.74161 52.2751 6.9136 52.2751 5.17934C52.2751 2.01549 49.637 0.39841 46.5837 0.39841H36.3491V17.1317ZM41.7229 4.38252H44.2388C46.2906 4.38252 46.9013 4.99186 46.9013 6.04647C46.9013 7.54637 45.5334 7.71043 44.5319 7.71043H41.7229V4.38252Z" fill="#7888A0"/>
<path d="M53.5993 17.1317H61.3669C67.4491 17.1317 70.2826 13.8741 70.2826 8.74161C70.2826 4.52314 68.2307 0.39841 62.4172 0.39841H53.5993V17.1317ZM58.9731 4.68719H60.683C64.5668 4.68719 64.9087 7.61668 64.9087 8.6713C64.9087 10.2415 64.4202 12.8429 61.0738 12.8429H58.9731V4.68719Z" fill="#7888A0"/>
<path d="M71.756 17.1317H86.4607V12.8429H77.1298V10.7571H85.3615V6.77299H77.1298V4.68719H86.192V0.39841H71.756V17.1317Z" fill="#7888A0"/>
<path d="M88.0997 17.1317H93.4736V11.2961H96.3315C98.4566 11.2961 98.6031 12.9601 98.7497 14.5537C98.823 15.4209 98.9207 16.288 99.1894 17.1317H104.563C104.075 16.3583 104.05 14.3662 103.977 13.546C103.782 11.4602 102.878 9.91341 101.412 9.37438C103.195 8.74161 104.026 6.9136 104.026 5.17934C104.026 2.01549 101.388 0.39841 98.3344 0.39841H88.0997V17.1317ZM93.4736 4.38252H95.9895C98.0413 4.38252 98.652 4.99186 98.652 6.04647C98.652 7.54637 97.2841 7.71043 96.2826 7.71043H93.4736V4.38252Z" fill="#7888A0"/>
<path d="M105.35 17.1317H118.443V12.8429H110.724V0.39841H105.35V17.1317Z" fill="#7888A0"/>
<path d="M119.881 17.1317H134.586V12.8429H125.255V10.7571H133.486V6.77299H125.255V4.68719H134.317V0.39841H119.881V17.1317Z" fill="#7888A0"/>
<path d="M135.125 11.507C135.174 16.8504 140.817 17.5301 142.795 17.5301C146.679 17.5301 150.856 16.1239 150.856 11.7648C150.856 8.69474 148.413 7.59325 145.946 6.93704C143.479 6.28083 140.988 6.02304 140.89 4.8278C140.89 3.89037 142.087 3.70288 142.82 3.70288C143.357 3.70288 143.968 3.82006 144.407 4.12473C144.847 4.40596 145.14 4.8278 145.043 5.46058H150.123C149.977 1.38272 146.63 0 142.844 0C139.254 0 135.809 1.66395 135.809 5.53088C135.809 8.90566 138.96 9.63217 141.721 10.3821C144.725 11.2024 145.482 11.4367 145.482 12.3039C145.482 13.546 144.139 13.8272 143.259 13.8272C142.258 13.8272 141.085 13.6163 140.695 12.6085C140.573 12.3039 140.499 11.9289 140.499 11.507H135.125Z" fill="#7888A0"/>
<path d="M150.563 11.507C150.612 16.8504 156.254 17.5301 158.233 17.5301C162.116 17.5301 166.293 16.1239 166.293 11.7648C166.293 8.69474 163.851 7.59325 161.384 6.93704C158.917 6.28083 156.425 6.02304 156.327 4.8278C156.327 3.89037 157.524 3.70288 158.257 3.70288C158.794 3.70288 159.405 3.82006 159.845 4.12473C160.284 4.40596 160.578 4.8278 160.48 5.46058H165.561C165.414 1.38272 162.068 0 158.282 0C154.691 0 151.247 1.66395 151.247 5.53088C151.247 8.90566 154.398 9.63217 157.158 10.3821C160.162 11.2024 160.92 11.4367 160.92 12.3039C160.92 13.546 159.576 13.8272 158.697 13.8272C157.695 13.8272 156.523 13.6163 156.132 12.6085C156.01 12.3039 155.937 11.9289 155.937 11.507H150.563Z" fill="#7888A0"/>
<path d="M16.7319 25.7512C16.2678 21.5561 13.6298 19.1422 8.84219 19.1188C3.46837 19.1188 -0.000183105 22.6108 -0.000183105 27.8838C-0.000183105 32.8288 3.19968 36.6489 8.84219 36.6489C13.9473 36.6489 16.8052 33.0632 16.8052 29.6884H11.5291C11.2116 31.2586 10.5032 32.4773 8.69563 32.4773C6.17971 32.4773 5.37364 30.1337 5.37364 27.8838C5.37364 25.634 6.17971 23.2904 8.69563 23.2904C10.9184 23.2904 11.407 25.1418 11.5047 25.7512H16.7319Z" fill="#7888A0"/>
<path d="M17.6794 27.8838C17.6794 32.9929 21.2213 36.6489 26.5218 36.6489C31.8223 36.6489 35.3642 32.9929 35.3642 27.8838C35.3642 22.7748 31.8223 19.1188 26.5218 19.1188C21.2213 19.1188 17.6794 22.7748 17.6794 27.8838ZM23.0532 27.8838C23.0532 24.1575 25.1539 23.2904 26.5218 23.2904C27.8897 23.2904 29.9904 24.1575 29.9904 27.8838C29.9904 31.6102 27.8897 32.4773 26.5218 32.4773C25.1539 32.4773 23.0532 31.6102 23.0532 27.8838Z" fill="#7888A0"/>
<path d="M36.8028 36.2505H41.8836V27.1105H41.9324L47.2818 36.2505H52.5091V19.5172H47.4284V28.4697H47.3795L42.2988 19.5172H36.8028V36.2505Z" fill="#7888A0"/>
<path d="M54.4825 36.2505H59.5632V27.1105H59.612L64.9614 36.2505H70.1887V19.5172H65.108V28.4697H65.0591L59.9784 19.5172H54.4825V36.2505Z" fill="#7888A0"/>
<path d="M72.1376 36.2505H86.8423V31.9617H77.5114V29.8759H85.7432V25.8918H77.5114V23.806H86.5737V19.5172H72.1376V36.2505Z" fill="#7888A0"/>
<path d="M104.701 25.7512C104.236 21.5561 101.598 19.1422 96.8108 19.1188C91.437 19.1188 87.9684 22.6108 87.9684 27.8838C87.9684 32.8288 91.1683 36.6489 96.8108 36.6489C101.916 36.6489 104.774 33.0632 104.774 29.6884H99.4977C99.1802 31.2586 98.4718 32.4773 96.6643 32.4773C94.1483 32.4773 93.3423 30.1337 93.3423 27.8838C93.3423 25.634 94.1483 23.2904 96.6643 23.2904C98.8871 23.2904 99.3756 25.1418 99.4733 25.7512H104.701Z" fill="#7888A0"/>
<path d="M110.24 36.2505H115.614V23.806H120.499V19.5172H105.355V23.806H110.24V36.2505Z" fill="#7888A0"/>
<path d="M121.622 36.2505H126.996V19.5172H121.622V36.2505Z" fill="#7888A0"/>
<path d="M143.753 19.5172H138.232L135.423 29.665H135.374L132.517 19.5172H127.094L132.297 36.2505H138.306L143.753 19.5172Z" fill="#7888A0"/>
<path d="M143.886 36.2505H149.259V19.5172H143.886V36.2505Z" fill="#7888A0"/>
<path d="M155.244 36.2505H160.618V23.806H165.503V19.5172H150.359V23.806H155.244V36.2505Z" fill="#7888A0"/>
<path d="M170.632 36.2505H176.006V30.0868L182.259 19.5172H176.372L173.343 25.6809L170.437 19.5172H164.501L170.632 30.0868V36.2505Z" fill="#7888A0"/>
<path d="M179.491 36.2505H184.571V31.6102H179.491V36.2505Z" fill="#7888A0"/>
</g>
</svg>
