<svg width="76" height="54" viewBox="0 0 76 54" fill="none" xmlns="http://www.w3.org/2000/svg">
<g id="carbon:email" clip-path="url(#clip0_1_245)">
<path id="Vector" d="M70.6 0H5.80002C4.36785 0 2.99434 0.568927 1.98165 1.58162C0.968951 2.59432 0.400024 3.96783 0.400024 5.4V48.6C0.400024 50.0322 0.968951 51.4057 1.98165 52.4184C2.99434 53.4311 4.36785 54 5.80002 54H70.6C72.0322 54 73.4057 53.4311 74.4184 52.4184C75.4311 51.4057 76 50.0322 76 48.6V5.4C76 3.96783 75.4311 2.59432 74.4184 1.58162C73.4057 0.568927 72.0322 0 70.6 0ZM64.66 5.4L38.2 23.706L11.74 5.4H64.66ZM5.80002 48.6V7.857L36.661 29.214C37.113 29.5275 37.6499 29.6956 38.2 29.6956C38.7501 29.6956 39.287 29.5275 39.739 29.214L70.6 7.857V48.6H5.80002Z" fill="#7888A0"/>
</g>
<defs>
<clipPath id="clip0_1_245">
<rect width="75.6" height="54" fill="white" transform="translate(0.400024)"/>
</clipPath>
</defs>
</svg>
