<svg width="79" height="70" viewBox="0 0 79 70" fill="none" xmlns="http://www.w3.org/2000/svg">
<g id="carbon:certificate-check" clip-path="url(#clip0_1_235)">
<path id="Vector" d="M11.8 33.6H28.6V39.2H11.8V33.6ZM11.8 22.4H39.8V28H11.8V22.4ZM11.8 11.2H39.8V16.8H11.8V11.2Z" fill="#7888A0"/>
<path id="Vector_2" d="M34.2 61.6H6.20003V5.6H73.4V33.6H79V5.6C79 4.11479 78.41 2.69041 77.3598 1.6402C76.3096 0.589998 74.8852 0 73.4 0H6.20003C4.71482 0 3.29044 0.589998 2.24024 1.6402C1.19003 2.69041 0.600037 4.11479 0.600037 5.6V61.6C0.600037 63.0852 1.19003 64.5096 2.24024 65.5598C3.29044 66.61 4.71482 67.2 6.20003 67.2H34.2V61.6Z" fill="#7888A0"/>
<path id="Vector_3" d="M56.6 60.452L49.348 53.2L45.4 57.148L56.6 68.348L79 45.948L75.052 42L56.6 60.452Z" fill="#7888A0"/>
</g>
<defs>
<clipPath id="clip0_1_235">
<rect width="78.4" height="70" fill="white" transform="translate(0.600037)"/>
</clipPath>
</defs>
</svg>
