<svg width="77" height="80" viewBox="0 0 77 80" fill="none" xmlns="http://www.w3.org/2000/svg">
<g id="carbon:send-alt" clip-path="url(#clip0_1_227)">
<path id="Vector" d="M76.072 4.12799C75.6401 3.69815 75.0945 3.40054 74.4993 3.27016C73.9041 3.13978 73.284 3.18205 72.712 3.392L2.31199 28.992C1.70485 29.2223 1.18213 29.6318 0.813272 30.1662C0.444412 30.7006 0.246861 31.3346 0.246861 31.984C0.246861 32.6333 0.444412 33.2673 0.813272 33.8017C1.18213 34.3361 1.70485 34.7457 2.31199 34.976L33.032 47.264L45.32 77.984C45.5509 78.5644 45.9466 79.0646 46.4584 79.4229C46.9701 79.7811 47.5756 79.9817 48.2 80C48.8467 79.9867 49.4741 79.7778 49.9997 79.4007C50.5253 79.0237 50.9242 78.4963 51.144 77.888L76.744 7.48799C76.962 6.92184 77.0146 6.30537 76.8956 5.71047C76.7766 5.11557 76.491 4.56675 76.072 4.12799ZM48.2 67.84L39.272 45.44L54.6 30.112L50.088 25.6L34.632 41.056L12.36 32L68.456 11.744L48.2 67.84Z" fill="#7888A0"/>
</g>
<defs>
<clipPath id="clip0_1_227">
<rect width="76.8" height="80" fill="white" transform="translate(0.199989)"/>
</clipPath>
</defs>
</svg>
