<svg width="80" height="80" viewBox="0 0 80 80" fill="none" xmlns="http://www.w3.org/2000/svg">
<g id="carbon:application-web">
<path id="Vector" d="M68.4694 0.714355H79.6939V11.9388H68.4694V0.714355ZM68.4694 17.5511H79.6939V28.7756H68.4694V17.5511ZM51.6327 0.714355H62.8571V11.9388H51.6327V0.714355ZM51.6327 17.5511H62.8571V28.7756H51.6327V17.5511Z" fill="#7888A0"/>
<path id="Vector_2" d="M74.0816 39.9999V56.8366H6.73471V11.9387H40.4082V6.32642H6.73471C5.24625 6.32642 3.81875 6.9177 2.76625 7.97021C1.71375 9.02271 1.12247 10.4502 1.12247 11.9387V56.8366C1.12247 58.3251 1.71375 59.7526 2.76625 60.8051C3.81875 61.8576 5.24625 62.4489 6.73471 62.4489H29.1837V73.6734H17.9592V79.2856H62.8571V73.6734H51.6327V62.4489H74.0816C75.5701 62.4489 76.9976 61.8576 78.0501 60.8051C79.1026 59.7526 79.6939 58.3251 79.6939 56.8366V39.9999H74.0816ZM46.0204 73.6734H34.7959V62.4489H46.0204V73.6734Z" fill="#7888A0"/>
</g>
</svg>
