<svg width="80" height="80" viewBox="0 0 80 80" fill="none" xmlns="http://www.w3.org/2000/svg">
<g id="carbon:accessibility-color" clip-path="url(#clip0_1_217)">
<path id="Vector" d="M40 51.4287C37.7397 51.4287 35.5301 50.7584 33.6506 49.5026C31.7712 48.2468 30.3064 46.4619 29.4414 44.3736C28.5764 42.2853 28.3501 39.9874 28.791 37.7705C29.232 35.5536 30.3205 33.5172 31.9188 31.9189C33.5171 30.3206 35.5535 29.2321 37.7704 28.7911C39.9873 28.3502 42.2852 28.5765 44.3735 29.4415C46.4618 30.3065 48.2467 31.7713 49.5025 33.6507C50.7583 35.5302 51.4286 37.7398 51.4286 40.0001C51.4248 43.03 50.2195 45.9347 48.0771 48.0772C45.9346 50.2196 43.0299 51.4249 40 51.4287ZM40 34.2858C38.8698 34.2858 37.765 34.621 36.8253 35.2489C35.8856 35.8767 35.1532 36.7692 34.7207 37.8133C34.2882 38.8575 34.175 40.0064 34.3955 41.1149C34.616 42.2234 35.1603 43.2416 35.9594 44.0407C36.7586 44.8399 37.7768 45.3841 38.8852 45.6046C39.9937 45.8251 41.1426 45.7119 42.1868 45.2794C43.2309 44.8469 44.1234 44.1145 44.7513 43.1748C45.3792 42.2351 45.7143 41.1303 45.7143 40.0001C45.7128 38.4851 45.1103 37.0325 44.039 35.9612C42.9676 34.8899 41.5151 34.2873 40 34.2858Z" fill="#7888A0"/>
<path id="Vector_2" d="M40 62.8571C33.5086 62.6836 27.2428 60.439 22.1179 56.4511C16.993 52.4632 13.2775 46.9411 11.5143 40.6914L11.3429 40L11.5143 39.3085C13.2775 33.0588 16.993 27.5367 22.1179 23.5488C27.2428 19.561 33.5086 17.3163 40 17.1428C46.4914 17.3163 52.7572 19.561 57.8821 23.5488C63.007 27.5367 66.7225 33.0588 68.4857 39.3085L68.6571 40L68.4857 40.6914C66.7225 46.9411 63.007 52.4632 57.8821 56.4511C52.7572 60.439 46.4914 62.6836 40 62.8571ZM17.2429 40C18.7839 44.8682 21.8037 49.1352 25.8823 52.2075C29.9609 55.2799 34.8956 57.005 40 57.1428C45.1045 57.005 50.0391 55.2799 54.1177 52.2075C58.1963 49.1352 61.2161 44.8682 62.7571 40C61.2161 35.1318 58.1963 30.8648 54.1177 27.7924C50.0391 24.72 45.1045 22.9949 40 22.8571C34.8956 22.9949 29.9609 24.72 25.8823 27.7924C21.8037 30.8648 18.7839 35.1318 17.2429 40Z" fill="#7888A0"/>
<path id="Vector_3" d="M40 80C32.0888 80 24.3552 77.654 17.7772 73.2588C11.1992 68.8635 6.07234 62.6164 3.04484 55.3073C0.0173313 47.9983 -0.774802 39.9556 0.768607 32.1964C2.31202 24.4372 6.12164 17.3098 11.7157 11.7157C17.3098 6.12164 24.4372 2.31202 32.1964 0.768607C39.9556 -0.774802 47.9983 0.0173313 55.3073 3.04484C62.6164 6.07234 68.8635 11.1992 73.2588 17.7772C77.654 24.3552 80 32.0888 80 40C79.9879 50.605 75.7697 60.7721 68.2709 68.2709C60.7721 75.7697 50.605 79.9879 40 80ZM40 5.7143C33.2189 5.7143 26.5901 7.72512 20.9519 11.4925C15.3136 15.2598 10.9192 20.6145 8.32415 26.8794C5.72914 33.1443 5.05017 40.038 6.37309 46.6888C7.69601 53.3396 10.9614 59.4487 15.7564 64.2437C20.5513 69.0386 26.6604 72.304 33.3112 73.6269C39.962 74.9498 46.8557 74.2709 53.1206 71.6759C59.3855 69.0809 64.7402 64.6864 68.5075 59.0481C72.2749 53.4099 74.2857 46.7811 74.2857 40C74.2751 30.9101 70.6595 22.1956 64.232 15.768C57.8044 9.34052 49.0899 5.72489 40 5.7143Z" fill="#7888A0"/>
</g>
<defs>
<clipPath id="clip0_1_217">
<rect width="80" height="80" fill="white"/>
</clipPath>
</defs>
</svg>
