<svg width="27" height="26" viewBox="0 0 27 26" fill="none" xmlns="http://www.w3.org/2000/svg">
<g id="entypo-social:twitter-with-circle" clip-path="url(#clip0_1_288)">
<path id="Vector" d="M13.3039 0.648926C6.41125 0.648926 0.823853 6.23633 0.823853 13.1289C0.823853 20.0215 6.41125 25.6089 13.3039 25.6089C20.1965 25.6089 25.7839 20.0215 25.7839 13.1289C25.7839 6.23633 20.1965 0.648926 13.3039 0.648926ZM18.3804 10.8721C18.3856 10.9787 18.3869 11.0853 18.3869 11.1893C18.3869 14.4393 15.9156 18.1846 11.3942 18.1846C10.0581 18.1868 8.74991 17.8031 7.62675 17.0796C7.81785 17.103 8.01415 17.1121 8.21305 17.1121C9.36485 17.1121 10.4244 16.7208 11.2655 16.0604C10.7529 16.0504 10.2562 15.8806 9.8447 15.5749C9.43317 15.2692 9.12728 14.8427 8.96965 14.3548C9.33775 14.4248 9.71696 14.4102 10.0786 14.3119C9.52222 14.1994 9.02191 13.898 8.66247 13.4587C8.30304 13.0194 8.10659 12.4693 8.10645 11.9017V11.8718C8.43795 12.0551 8.81755 12.1669 9.22055 12.1799C8.69899 11.8327 8.32977 11.2994 8.18841 10.689C8.04705 10.0786 8.14422 9.43725 8.46005 8.89612C9.07749 9.65532 9.84749 10.2764 10.7202 10.7191C11.5929 11.1619 12.5488 11.4164 13.5262 11.4662C13.4019 10.9388 13.4554 10.3852 13.6783 9.89128C13.9012 9.39741 14.281 8.99101 14.7586 8.73527C15.2363 8.47953 15.7851 8.38877 16.3197 8.4771C16.8543 8.56543 17.3447 8.82791 17.7148 9.22373C18.2649 9.11488 18.7924 8.9131 19.2748 8.62703C19.0914 9.1966 18.7075 9.68025 18.1945 9.98813C18.6818 9.92943 19.1576 9.79843 19.6063 9.59943C19.2767 10.0933 18.8615 10.5243 18.3804 10.8721Z" fill="#00AAE3"/>
</g>
<defs>
<clipPath id="clip0_1_288">
<rect width="26" height="25.0756" fill="white" transform="translate(0.304321 0.648926)"/>
</clipPath>
</defs>
</svg>
