<svg width="26" height="25" viewBox="0 0 26 25" fill="none" xmlns="http://www.w3.org/2000/svg">
<g id="Instagram">
<path id="Vector" d="M25.1049 7.24786C25.091 6.23548 24.8951 5.23317 24.526 4.28576C24.206 3.48663 23.7171 2.76087 23.0907 2.15486C22.4643 1.54885 21.7142 1.07592 20.8882 0.766273C19.9215 0.415202 18.9002 0.225372 17.8679 0.204865C16.5387 0.147388 16.1173 0.131348 12.7434 0.131348C9.3694 0.131348 8.93694 0.131348 7.61748 0.204865C6.58561 0.225523 5.56484 0.41535 4.59859 0.766273C3.77245 1.0757 3.02216 1.54856 2.39574 2.1546C1.76932 2.76063 1.28056 3.4865 0.960723 4.28576C0.597118 5.22028 0.401328 6.20806 0.381815 7.20642C0.322405 8.49364 0.304443 8.90133 0.304443 12.1655C0.304443 15.4297 0.304443 15.8467 0.381815 17.1246C0.40254 18.1245 0.597351 19.1109 0.960723 20.0479C1.2811 20.847 1.77022 21.5725 2.39685 22.1783C3.02348 22.7841 3.77384 23.2568 4.59997 23.5661C5.56357 23.9313 6.58452 24.1347 7.61886 24.1676C8.94938 24.2251 9.37078 24.2425 12.7448 24.2425C16.1187 24.2425 16.5512 24.2425 17.8706 24.1676C18.9029 24.1479 19.9243 23.9585 20.8909 23.6075C21.7167 23.2975 22.4667 22.8245 23.093 22.2185C23.7194 21.6125 24.2084 20.887 24.5288 20.088C24.8922 19.1524 25.087 18.1659 25.1077 17.1647C25.1671 15.8788 25.1851 15.4711 25.1851 12.2056C25.1823 8.94143 25.1823 8.52706 25.1049 7.24786ZM12.7351 18.3383C9.20637 18.3383 6.34775 15.5727 6.34775 12.1588C6.34775 8.74494 9.20637 5.97934 12.7351 5.97934C14.4291 5.97934 16.0537 6.63039 17.2516 7.78927C18.4495 8.94815 19.1224 10.5199 19.1224 12.1588C19.1224 13.7977 18.4495 15.3695 17.2516 16.5284C16.0537 17.6873 14.4291 18.3383 12.7351 18.3383ZM19.3766 7.19171C18.5518 7.19171 17.8872 6.54743 17.8872 5.75077C17.8872 5.56163 17.9257 5.37434 18.0005 5.1996C18.0754 5.02486 18.185 4.86608 18.3233 4.73234C18.4615 4.5986 18.6256 4.49251 18.8062 4.42013C18.9869 4.34775 19.1804 4.31049 19.3759 4.31049C19.5714 4.31049 19.765 4.34775 19.9457 4.42013C20.1263 4.49251 20.2904 4.5986 20.4286 4.73234C20.5669 4.86608 20.6765 5.02486 20.7513 5.1996C20.8262 5.37434 20.8647 5.56163 20.8647 5.75077C20.8647 6.54743 20.1987 7.19171 19.3766 7.19171Z" fill="url(#paint0_linear_1_290)"/>
<path id="Vector_2" d="M12.7348 16.1728C15.0263 16.1728 16.8839 14.3756 16.8839 12.1587C16.8839 9.94172 15.0263 8.14453 12.7348 8.14453C10.4433 8.14453 8.58569 9.94172 8.58569 12.1587C8.58569 14.3756 10.4433 16.1728 12.7348 16.1728Z" fill="url(#paint1_linear_1_290)"/>
</g>
<defs>
<linearGradient id="paint0_linear_1_290" x1="12.7448" y1="0.131348" x2="12.7448" y2="24.2425" gradientUnits="userSpaceOnUse">
<stop stop-color="#9137B0"/>
<stop offset="0.471875" stop-color="#E94677"/>
<stop offset="1" stop-color="#F6C03C"/>
</linearGradient>
<linearGradient id="paint1_linear_1_290" x1="12.7348" y1="8.14453" x2="12.7348" y2="16.1728" gradientUnits="userSpaceOnUse">
<stop stop-color="#9137B0"/>
<stop offset="0.492708" stop-color="#E94677"/>
<stop offset="1" stop-color="#F6C03C"/>
</linearGradient>
</defs>
</svg>
