<svg width="26" height="25" viewBox="0 0 26 25" fill="none" xmlns="http://www.w3.org/2000/svg">
<path id="LinkedIn" d="M5.06884 0.131348C2.38314 0.131348 0.185059 2.25786 0.185059 4.85622V19.5184C0.185059 22.1167 2.38309 24.2425 5.06884 24.2425H20.2241C22.9098 24.2425 25.1071 22.1167 25.1071 19.5184V4.85622C25.1071 2.25791 22.9098 0.131348 20.2241 0.131348H5.06884ZM6.29718 4.11017C7.58492 4.11017 8.37811 4.92803 8.40259 6.00311C8.40259 7.05445 7.58487 7.89531 6.27227 7.89531H6.24812C4.98489 7.89531 4.16841 7.0545 4.16841 6.00311C4.16841 4.92806 5.0096 4.11017 6.29716 4.11017H6.29718ZM17.3943 9.13495C19.8709 9.13495 21.7274 10.701 21.7274 14.0663V20.3487H17.9637V14.4875C17.9637 13.0146 17.419 12.0098 16.0569 12.0098C15.0171 12.0098 14.3974 12.6871 14.1252 13.3413C14.0258 13.5754 14.0014 13.9023 14.0014 14.2298V20.3487H10.2377C10.2377 20.3487 10.2871 10.42 10.2377 9.39189H14.0022V10.9435C14.5023 10.1969 15.397 9.13492 17.3943 9.13492V9.13495ZM4.39042 9.39269H8.15411V20.3488H4.39042V9.39269Z" fill="#007CBB"/>
</svg>
