<svg width="140" height="23" viewBox="0 0 140 23" fill="none" xmlns="http://www.w3.org/2000/svg">
<g id="Logo">
<path d="M6.05569 0.602051H0V4.70225H6.05569V0.602051Z" fill="#8F00F1"/>
<path d="M6.05569 6.35474H0V21.6639H6.05569V6.35474Z" fill="#8F00F1"/>
<path d="M31.3523 1.69405H25.2966V6.35455H16.9451L15.1711 9.39332L13.4279 6.35455H6.76053L11.7461 13.6108L6.20996 21.6637H12.8466L15.0796 17.9174L17.4038 21.6637H24.0715L18.4439 13.6108L22.6052 7.55388V9.95365H25.2966V17.2683C25.2966 21.457 28.141 21.8408 30.7102 21.8408C31.9947 21.8408 33.3712 21.6635 34.5943 21.6635V17.239C34.1356 17.2982 33.6765 17.3275 33.2183 17.3275C31.6891 17.3275 31.3523 16.7077 31.3523 15.2924V9.95337H34.5943V6.35455H31.3523V1.69405Z" fill="#8F00F1"/>
<path d="M43.3118 5.97141C38.2959 5.97141 34.9316 9.59898 34.9316 14.0531C34.9316 19.156 38.7543 22.047 43.8317 22.047C47.4407 22.047 50.7742 20.5136 51.9976 17.21H46.3395C45.8504 17.9477 44.7796 18.3013 43.801 18.3013C41.9046 18.3013 40.8648 17.0625 40.7119 15.3223H52.3341C52.3341 9.36323 49.6123 5.97141 43.3118 5.97141ZM40.7426 12.2838C41.018 10.6322 42.0578 9.71685 43.8624 9.71685C45.422 9.71685 46.5232 10.868 46.5232 12.2838H40.7426Z" fill="#8F00F1"/>
<path d="M59.2185 0.602051H53.1628V21.6633H59.2185V0.602051Z" fill="#8F00F1"/>
<path d="M68.5482 5.97141C63.5319 5.97141 60.168 9.59898 60.168 14.0531C60.168 19.156 63.9907 22.047 69.068 22.047C72.6767 22.047 76.0105 20.5136 77.2339 17.21H71.5756C71.0864 17.9477 70.016 18.3013 69.037 18.3013C67.1409 18.3013 66.1009 17.0625 65.9479 15.3223H77.5702C77.5702 9.36323 74.8483 5.97141 68.5482 5.97141ZM65.9786 12.2838C66.2538 10.6322 67.2938 9.71685 69.0981 9.71685C70.658 9.71685 71.7592 10.868 71.7592 12.2838H65.9786Z" fill="#8F00F1"/>
<path d="M86.9306 17.7994C84.6064 17.7994 84.2696 15.8821 84.2696 14.0237C84.2696 12.1651 84.6061 10.2188 86.9306 10.2188C87.573 10.2188 88.0931 10.3962 88.4598 10.7196C88.8575 11.0442 89.0718 11.5462 89.1329 12.1651H94.8827C94.5155 7.94706 90.9679 5.97141 86.8081 5.97141C82.0372 5.97141 78.2139 9.18671 78.2139 14.0237C78.2139 18.8616 82.0369 22.0468 86.8081 22.0468C88.949 22.0468 90.8761 21.4568 92.3135 20.3652C93.7816 19.2443 94.7912 17.6226 95.0664 15.5575H89.2855C89.163 16.7673 88.2458 17.7994 86.9306 17.7994Z" fill="#8F00F1"/>
<path d="M104.335 5.97141C98.3717 5.97141 95.6797 9.74703 95.6797 13.9947C95.6797 18.2421 98.3714 22.047 104.335 22.047C110.299 22.047 112.991 18.2421 112.991 13.9947C112.991 9.74703 110.299 5.97141 104.335 5.97141ZM104.335 17.7994C102.041 17.7994 101.735 15.6173 101.735 13.9947C101.735 12.3718 102.041 10.2188 104.335 10.2188C106.629 10.2188 106.935 12.3718 106.935 13.9947C106.935 15.6173 106.629 17.7994 104.335 17.7994Z" fill="#8F00F1"/>
<path d="M134.556 5.97141C130.61 5.97141 129.387 8.18365 129.142 8.36018C128.408 6.82613 126.573 5.97141 124.86 5.97141C122.658 5.97141 120.884 6.62056 119.661 8.38951H119.599V6.35435H113.758V21.6635H119.814V13.3746C119.814 11.7822 120.333 10.6319 121.863 10.6319C123.698 10.6319 123.851 11.9291 123.851 13.3746V21.6635H129.907V13.3746C129.907 11.7822 130.427 10.6319 131.956 10.6319C133.791 10.6319 133.944 11.9291 133.944 13.3746V21.6635H140V11.1624C140 8.68476 138.624 5.97141 134.556 5.97141Z" fill="#8F00F1"/>
</g>
</svg>
